<?xml version="1.0"?>
<svg xmlns="http://www.w3.org/2000/svg" xmlns:xlink="http://www.w3.org/1999/xlink" version="1.1" width="320px" height="320px" viewBox="0 0 320 320"><defs><rect id="block" width="8.0000000000" height="8.0000000000" fill="#000000" fill-opacity="1"/></defs><rect x="0" y="0" width="320" height="320" fill="#ffffff" fill-opacity="1"/><use x="12.0000000000" y="12.0000000000" xlink:href="#block"/><use x="20.0000000000" y="12.0000000000" xlink:href="#block"/><use x="28.0000000000" y="12.0000000000" xlink:href="#block"/><use x="36.0000000000" y="12.0000000000" xlink:href="#block"/><use x="44.0000000000" y="12.0000000000" xlink:href="#block"/><use x="52.0000000000" y="12.0000000000" xlink:href="#block"/><use x="60.0000000000" y="12.0000000000" xlink:href="#block"/><use x="84.0000000000" y="12.0000000000" xlink:href="#block"/><use x="124.0000000000" y="12.0000000000" xlink:href="#block"/><use x="132.0000000000" y="12.0000000000" xlink:href="#block"/><use x="140.0000000000" y="12.0000000000" xlink:href="#block"/><use x="156.0000000000" y="12.0000000000" xlink:href="#block"/><use x="164.0000000000" y="12.0000000000" xlink:href="#block"/><use x="180.0000000000" y="12.0000000000" xlink:href="#block"/><use x="188.0000000000" y="12.0000000000" xlink:href="#block"/><use x="204.0000000000" y="12.0000000000" xlink:href="#block"/><use x="228.0000000000" y="12.0000000000" xlink:href="#block"/><use x="252.0000000000" y="12.0000000000" xlink:href="#block"/><use x="260.0000000000" y="12.0000000000" xlink:href="#block"/><use x="268.0000000000" y="12.0000000000" xlink:href="#block"/><use x="276.0000000000" y="12.0000000000" xlink:href="#block"/><use x="284.0000000000" y="12.0000000000" xlink:href="#block"/><use x="292.0000000000" y="12.0000000000" xlink:href="#block"/><use x="300.0000000000" y="12.0000000000" xlink:href="#block"/><use x="12.0000000000" y="20.0000000000" xlink:href="#block"/><use x="60.0000000000" y="20.0000000000" xlink:href="#block"/><use x="76.0000000000" y="20.0000000000" xlink:href="#block"/><use x="84.0000000000" y="20.0000000000" xlink:href="#block"/><use x="100.0000000000" y="20.0000000000" xlink:href="#block"/><use x="108.0000000000" y="20.0000000000" xlink:href="#block"/><use x="116.0000000000" y="20.0000000000" xlink:href="#block"/><use x="124.0000000000" y="20.0000000000" xlink:href="#block"/><use x="148.0000000000" y="20.0000000000" xlink:href="#block"/><use x="172.0000000000" y="20.0000000000" xlink:href="#block"/><use x="188.0000000000" y="20.0000000000" xlink:href="#block"/><use x="204.0000000000" y="20.0000000000" xlink:href="#block"/><use x="212.0000000000" y="20.0000000000" xlink:href="#block"/><use x="236.0000000000" y="20.0000000000" xlink:href="#block"/><use x="252.0000000000" y="20.0000000000" xlink:href="#block"/><use x="300.0000000000" y="20.0000000000" xlink:href="#block"/><use x="12.0000000000" y="28.0000000000" xlink:href="#block"/><use x="28.0000000000" y="28.0000000000" xlink:href="#block"/><use x="36.0000000000" y="28.0000000000" xlink:href="#block"/><use x="44.0000000000" y="28.0000000000" xlink:href="#block"/><use x="60.0000000000" y="28.0000000000" xlink:href="#block"/><use x="84.0000000000" y="28.0000000000" xlink:href="#block"/><use x="92.0000000000" y="28.0000000000" xlink:href="#block"/><use x="100.0000000000" y="28.0000000000" xlink:href="#block"/><use x="116.0000000000" y="28.0000000000" xlink:href="#block"/><use x="156.0000000000" y="28.0000000000" xlink:href="#block"/><use x="164.0000000000" y="28.0000000000" xlink:href="#block"/><use x="172.0000000000" y="28.0000000000" xlink:href="#block"/><use x="196.0000000000" y="28.0000000000" xlink:href="#block"/><use x="212.0000000000" y="28.0000000000" xlink:href="#block"/><use x="236.0000000000" y="28.0000000000" xlink:href="#block"/><use x="252.0000000000" y="28.0000000000" xlink:href="#block"/><use x="268.0000000000" y="28.0000000000" xlink:href="#block"/><use x="276.0000000000" y="28.0000000000" xlink:href="#block"/><use x="284.0000000000" y="28.0000000000" xlink:href="#block"/><use x="300.0000000000" y="28.0000000000" xlink:href="#block"/><use x="12.0000000000" y="36.0000000000" xlink:href="#block"/><use x="28.0000000000" y="36.0000000000" xlink:href="#block"/><use x="36.0000000000" y="36.0000000000" xlink:href="#block"/><use x="44.0000000000" y="36.0000000000" xlink:href="#block"/><use x="60.0000000000" y="36.0000000000" xlink:href="#block"/><use x="76.0000000000" y="36.0000000000" xlink:href="#block"/><use x="84.0000000000" y="36.0000000000" xlink:href="#block"/><use x="100.0000000000" y="36.0000000000" xlink:href="#block"/><use x="116.0000000000" y="36.0000000000" xlink:href="#block"/><use x="124.0000000000" y="36.0000000000" xlink:href="#block"/><use x="132.0000000000" y="36.0000000000" xlink:href="#block"/><use x="148.0000000000" y="36.0000000000" xlink:href="#block"/><use x="156.0000000000" y="36.0000000000" xlink:href="#block"/><use x="172.0000000000" y="36.0000000000" xlink:href="#block"/><use x="188.0000000000" y="36.0000000000" xlink:href="#block"/><use x="212.0000000000" y="36.0000000000" xlink:href="#block"/><use x="220.0000000000" y="36.0000000000" xlink:href="#block"/><use x="228.0000000000" y="36.0000000000" xlink:href="#block"/><use x="236.0000000000" y="36.0000000000" xlink:href="#block"/><use x="252.0000000000" y="36.0000000000" xlink:href="#block"/><use x="268.0000000000" y="36.0000000000" xlink:href="#block"/><use x="276.0000000000" y="36.0000000000" xlink:href="#block"/><use x="284.0000000000" y="36.0000000000" xlink:href="#block"/><use x="300.0000000000" y="36.0000000000" xlink:href="#block"/><use x="12.0000000000" y="44.0000000000" xlink:href="#block"/><use x="28.0000000000" y="44.0000000000" xlink:href="#block"/><use x="36.0000000000" y="44.0000000000" xlink:href="#block"/><use x="44.0000000000" y="44.0000000000" xlink:href="#block"/><use x="60.0000000000" y="44.0000000000" xlink:href="#block"/><use x="92.0000000000" y="44.0000000000" xlink:href="#block"/><use x="108.0000000000" y="44.0000000000" xlink:href="#block"/><use x="132.0000000000" y="44.0000000000" xlink:href="#block"/><use x="140.0000000000" y="44.0000000000" xlink:href="#block"/><use x="172.0000000000" y="44.0000000000" xlink:href="#block"/><use x="180.0000000000" y="44.0000000000" xlink:href="#block"/><use x="196.0000000000" y="44.0000000000" xlink:href="#block"/><use x="204.0000000000" y="44.0000000000" xlink:href="#block"/><use x="228.0000000000" y="44.0000000000" xlink:href="#block"/><use x="236.0000000000" y="44.0000000000" xlink:href="#block"/><use x="252.0000000000" y="44.0000000000" xlink:href="#block"/><use x="268.0000000000" y="44.0000000000" xlink:href="#block"/><use x="276.0000000000" y="44.0000000000" xlink:href="#block"/><use x="284.0000000000" y="44.0000000000" xlink:href="#block"/><use x="300.0000000000" y="44.0000000000" xlink:href="#block"/><use x="12.0000000000" y="52.0000000000" xlink:href="#block"/><use x="60.0000000000" y="52.0000000000" xlink:href="#block"/><use x="76.0000000000" y="52.0000000000" xlink:href="#block"/><use x="92.0000000000" y="52.0000000000" xlink:href="#block"/><use x="116.0000000000" y="52.0000000000" xlink:href="#block"/><use x="124.0000000000" y="52.0000000000" xlink:href="#block"/><use x="148.0000000000" y="52.0000000000" xlink:href="#block"/><use x="172.0000000000" y="52.0000000000" xlink:href="#block"/><use x="188.0000000000" y="52.0000000000" xlink:href="#block"/><use x="212.0000000000" y="52.0000000000" xlink:href="#block"/><use x="220.0000000000" y="52.0000000000" xlink:href="#block"/><use x="228.0000000000" y="52.0000000000" xlink:href="#block"/><use x="252.0000000000" y="52.0000000000" xlink:href="#block"/><use x="300.0000000000" y="52.0000000000" xlink:href="#block"/><use x="12.0000000000" y="60.0000000000" xlink:href="#block"/><use x="20.0000000000" y="60.0000000000" xlink:href="#block"/><use x="28.0000000000" y="60.0000000000" xlink:href="#block"/><use x="36.0000000000" y="60.0000000000" xlink:href="#block"/><use x="44.0000000000" y="60.0000000000" xlink:href="#block"/><use x="52.0000000000" y="60.0000000000" xlink:href="#block"/><use x="60.0000000000" y="60.0000000000" xlink:href="#block"/><use x="76.0000000000" y="60.0000000000" xlink:href="#block"/><use x="92.0000000000" y="60.0000000000" xlink:href="#block"/><use x="108.0000000000" y="60.0000000000" xlink:href="#block"/><use x="124.0000000000" y="60.0000000000" xlink:href="#block"/><use x="140.0000000000" y="60.0000000000" xlink:href="#block"/><use x="156.0000000000" y="60.0000000000" xlink:href="#block"/><use x="172.0000000000" y="60.0000000000" xlink:href="#block"/><use x="188.0000000000" y="60.0000000000" xlink:href="#block"/><use x="204.0000000000" y="60.0000000000" xlink:href="#block"/><use x="220.0000000000" y="60.0000000000" xlink:href="#block"/><use x="236.0000000000" y="60.0000000000" xlink:href="#block"/><use x="252.0000000000" y="60.0000000000" xlink:href="#block"/><use x="260.0000000000" y="60.0000000000" xlink:href="#block"/><use x="268.0000000000" y="60.0000000000" xlink:href="#block"/><use x="276.0000000000" y="60.0000000000" xlink:href="#block"/><use x="284.0000000000" y="60.0000000000" xlink:href="#block"/><use x="292.0000000000" y="60.0000000000" xlink:href="#block"/><use x="300.0000000000" y="60.0000000000" xlink:href="#block"/><use x="108.0000000000" y="68.0000000000" xlink:href="#block"/><use x="116.0000000000" y="68.0000000000" xlink:href="#block"/><use x="140.0000000000" y="68.0000000000" xlink:href="#block"/><use x="156.0000000000" y="68.0000000000" xlink:href="#block"/><use x="164.0000000000" y="68.0000000000" xlink:href="#block"/><use x="172.0000000000" y="68.0000000000" xlink:href="#block"/><use x="188.0000000000" y="68.0000000000" xlink:href="#block"/><use x="196.0000000000" y="68.0000000000" xlink:href="#block"/><use x="220.0000000000" y="68.0000000000" xlink:href="#block"/><use x="236.0000000000" y="68.0000000000" xlink:href="#block"/><use x="12.0000000000" y="76.0000000000" xlink:href="#block"/><use x="20.0000000000" y="76.0000000000" xlink:href="#block"/><use x="28.0000000000" y="76.0000000000" xlink:href="#block"/><use x="36.0000000000" y="76.0000000000" xlink:href="#block"/><use x="44.0000000000" y="76.0000000000" xlink:href="#block"/><use x="60.0000000000" y="76.0000000000" xlink:href="#block"/><use x="68.0000000000" y="76.0000000000" xlink:href="#block"/><use x="76.0000000000" y="76.0000000000" xlink:href="#block"/><use x="84.0000000000" y="76.0000000000" xlink:href="#block"/><use x="92.0000000000" y="76.0000000000" xlink:href="#block"/><use x="108.0000000000" y="76.0000000000" xlink:href="#block"/><use x="116.0000000000" y="76.0000000000" xlink:href="#block"/><use x="124.0000000000" y="76.0000000000" xlink:href="#block"/><use x="132.0000000000" y="76.0000000000" xlink:href="#block"/><use x="140.0000000000" y="76.0000000000" xlink:href="#block"/><use x="172.0000000000" y="76.0000000000" xlink:href="#block"/><use x="228.0000000000" y="76.0000000000" xlink:href="#block"/><use x="244.0000000000" y="76.0000000000" xlink:href="#block"/><use x="260.0000000000" y="76.0000000000" xlink:href="#block"/><use x="276.0000000000" y="76.0000000000" xlink:href="#block"/><use x="292.0000000000" y="76.0000000000" xlink:href="#block"/><use x="12.0000000000" y="84.0000000000" xlink:href="#block"/><use x="20.0000000000" y="84.0000000000" xlink:href="#block"/><use x="28.0000000000" y="84.0000000000" xlink:href="#block"/><use x="52.0000000000" y="84.0000000000" xlink:href="#block"/><use x="68.0000000000" y="84.0000000000" xlink:href="#block"/><use x="84.0000000000" y="84.0000000000" xlink:href="#block"/><use x="124.0000000000" y="84.0000000000" xlink:href="#block"/><use x="132.0000000000" y="84.0000000000" xlink:href="#block"/><use x="140.0000000000" y="84.0000000000" xlink:href="#block"/><use x="164.0000000000" y="84.0000000000" xlink:href="#block"/><use x="172.0000000000" y="84.0000000000" xlink:href="#block"/><use x="180.0000000000" y="84.0000000000" xlink:href="#block"/><use x="204.0000000000" y="84.0000000000" xlink:href="#block"/><use x="228.0000000000" y="84.0000000000" xlink:href="#block"/><use x="236.0000000000" y="84.0000000000" xlink:href="#block"/><use x="252.0000000000" y="84.0000000000" xlink:href="#block"/><use x="260.0000000000" y="84.0000000000" xlink:href="#block"/><use x="276.0000000000" y="84.0000000000" xlink:href="#block"/><use x="300.0000000000" y="84.0000000000" xlink:href="#block"/><use x="28.0000000000" y="92.0000000000" xlink:href="#block"/><use x="36.0000000000" y="92.0000000000" xlink:href="#block"/><use x="44.0000000000" y="92.0000000000" xlink:href="#block"/><use x="60.0000000000" y="92.0000000000" xlink:href="#block"/><use x="68.0000000000" y="92.0000000000" xlink:href="#block"/><use x="76.0000000000" y="92.0000000000" xlink:href="#block"/><use x="84.0000000000" y="92.0000000000" xlink:href="#block"/><use x="100.0000000000" y="92.0000000000" xlink:href="#block"/><use x="108.0000000000" y="92.0000000000" xlink:href="#block"/><use x="116.0000000000" y="92.0000000000" xlink:href="#block"/><use x="124.0000000000" y="92.0000000000" xlink:href="#block"/><use x="132.0000000000" y="92.0000000000" xlink:href="#block"/><use x="148.0000000000" y="92.0000000000" xlink:href="#block"/><use x="156.0000000000" y="92.0000000000" xlink:href="#block"/><use x="164.0000000000" y="92.0000000000" xlink:href="#block"/><use x="188.0000000000" y="92.0000000000" xlink:href="#block"/><use x="204.0000000000" y="92.0000000000" xlink:href="#block"/><use x="212.0000000000" y="92.0000000000" xlink:href="#block"/><use x="220.0000000000" y="92.0000000000" xlink:href="#block"/><use x="228.0000000000" y="92.0000000000" xlink:href="#block"/><use x="244.0000000000" y="92.0000000000" xlink:href="#block"/><use x="252.0000000000" y="92.0000000000" xlink:href="#block"/><use x="268.0000000000" y="92.0000000000" xlink:href="#block"/><use x="284.0000000000" y="92.0000000000" xlink:href="#block"/><use x="300.0000000000" y="92.0000000000" xlink:href="#block"/><use x="12.0000000000" y="100.0000000000" xlink:href="#block"/><use x="20.0000000000" y="100.0000000000" xlink:href="#block"/><use x="28.0000000000" y="100.0000000000" xlink:href="#block"/><use x="44.0000000000" y="100.0000000000" xlink:href="#block"/><use x="52.0000000000" y="100.0000000000" xlink:href="#block"/><use x="68.0000000000" y="100.0000000000" xlink:href="#block"/><use x="84.0000000000" y="100.0000000000" xlink:href="#block"/><use x="100.0000000000" y="100.0000000000" xlink:href="#block"/><use x="116.0000000000" y="100.0000000000" xlink:href="#block"/><use x="140.0000000000" y="100.0000000000" xlink:href="#block"/><use x="148.0000000000" y="100.0000000000" xlink:href="#block"/><use x="164.0000000000" y="100.0000000000" xlink:href="#block"/><use x="172.0000000000" y="100.0000000000" xlink:href="#block"/><use x="180.0000000000" y="100.0000000000" xlink:href="#block"/><use x="188.0000000000" y="100.0000000000" xlink:href="#block"/><use x="196.0000000000" y="100.0000000000" xlink:href="#block"/><use x="212.0000000000" y="100.0000000000" xlink:href="#block"/><use x="236.0000000000" y="100.0000000000" xlink:href="#block"/><use x="260.0000000000" y="100.0000000000" xlink:href="#block"/><use x="276.0000000000" y="100.0000000000" xlink:href="#block"/><use x="284.0000000000" y="100.0000000000" xlink:href="#block"/><use x="292.0000000000" y="100.0000000000" xlink:href="#block"/><use x="12.0000000000" y="108.0000000000" xlink:href="#block"/><use x="20.0000000000" y="108.0000000000" xlink:href="#block"/><use x="28.0000000000" y="108.0000000000" xlink:href="#block"/><use x="36.0000000000" y="108.0000000000" xlink:href="#block"/><use x="60.0000000000" y="108.0000000000" xlink:href="#block"/><use x="68.0000000000" y="108.0000000000" xlink:href="#block"/><use x="76.0000000000" y="108.0000000000" xlink:href="#block"/><use x="92.0000000000" y="108.0000000000" xlink:href="#block"/><use x="100.0000000000" y="108.0000000000" xlink:href="#block"/><use x="116.0000000000" y="108.0000000000" xlink:href="#block"/><use x="124.0000000000" y="108.0000000000" xlink:href="#block"/><use x="132.0000000000" y="108.0000000000" xlink:href="#block"/><use x="172.0000000000" y="108.0000000000" xlink:href="#block"/><use x="188.0000000000" y="108.0000000000" xlink:href="#block"/><use x="204.0000000000" y="108.0000000000" xlink:href="#block"/><use x="228.0000000000" y="108.0000000000" xlink:href="#block"/><use x="260.0000000000" y="108.0000000000" xlink:href="#block"/><use x="276.0000000000" y="108.0000000000" xlink:href="#block"/><use x="284.0000000000" y="108.0000000000" xlink:href="#block"/><use x="292.0000000000" y="108.0000000000" xlink:href="#block"/><use x="300.0000000000" y="108.0000000000" xlink:href="#block"/><use x="12.0000000000" y="116.0000000000" xlink:href="#block"/><use x="20.0000000000" y="116.0000000000" xlink:href="#block"/><use x="28.0000000000" y="116.0000000000" xlink:href="#block"/><use x="36.0000000000" y="116.0000000000" xlink:href="#block"/><use x="76.0000000000" y="116.0000000000" xlink:href="#block"/><use x="108.0000000000" y="116.0000000000" xlink:href="#block"/><use x="140.0000000000" y="116.0000000000" xlink:href="#block"/><use x="164.0000000000" y="116.0000000000" xlink:href="#block"/><use x="180.0000000000" y="116.0000000000" xlink:href="#block"/><use x="188.0000000000" y="116.0000000000" xlink:href="#block"/><use x="236.0000000000" y="116.0000000000" xlink:href="#block"/><use x="244.0000000000" y="116.0000000000" xlink:href="#block"/><use x="252.0000000000" y="116.0000000000" xlink:href="#block"/><use x="260.0000000000" y="116.0000000000" xlink:href="#block"/><use x="276.0000000000" y="116.0000000000" xlink:href="#block"/><use x="300.0000000000" y="116.0000000000" xlink:href="#block"/><use x="12.0000000000" y="124.0000000000" xlink:href="#block"/><use x="36.0000000000" y="124.0000000000" xlink:href="#block"/><use x="44.0000000000" y="124.0000000000" xlink:href="#block"/><use x="52.0000000000" y="124.0000000000" xlink:href="#block"/><use x="60.0000000000" y="124.0000000000" xlink:href="#block"/><use x="68.0000000000" y="124.0000000000" xlink:href="#block"/><use x="76.0000000000" y="124.0000000000" xlink:href="#block"/><use x="84.0000000000" y="124.0000000000" xlink:href="#block"/><use x="116.0000000000" y="124.0000000000" xlink:href="#block"/><use x="124.0000000000" y="124.0000000000" xlink:href="#block"/><use x="148.0000000000" y="124.0000000000" xlink:href="#block"/><use x="172.0000000000" y="124.0000000000" xlink:href="#block"/><use x="188.0000000000" y="124.0000000000" xlink:href="#block"/><use x="204.0000000000" y="124.0000000000" xlink:href="#block"/><use x="212.0000000000" y="124.0000000000" xlink:href="#block"/><use x="220.0000000000" y="124.0000000000" xlink:href="#block"/><use x="244.0000000000" y="124.0000000000" xlink:href="#block"/><use x="252.0000000000" y="124.0000000000" xlink:href="#block"/><use x="268.0000000000" y="124.0000000000" xlink:href="#block"/><use x="276.0000000000" y="124.0000000000" xlink:href="#block"/><use x="284.0000000000" y="124.0000000000" xlink:href="#block"/><use x="292.0000000000" y="124.0000000000" xlink:href="#block"/><use x="300.0000000000" y="124.0000000000" xlink:href="#block"/><use x="12.0000000000" y="132.0000000000" xlink:href="#block"/><use x="36.0000000000" y="132.0000000000" xlink:href="#block"/><use x="44.0000000000" y="132.0000000000" xlink:href="#block"/><use x="68.0000000000" y="132.0000000000" xlink:href="#block"/><use x="84.0000000000" y="132.0000000000" xlink:href="#block"/><use x="108.0000000000" y="132.0000000000" xlink:href="#block"/><use x="124.0000000000" y="132.0000000000" xlink:href="#block"/><use x="140.0000000000" y="132.0000000000" xlink:href="#block"/><use x="164.0000000000" y="132.0000000000" xlink:href="#block"/><use x="172.0000000000" y="132.0000000000" xlink:href="#block"/><use x="180.0000000000" y="132.0000000000" xlink:href="#block"/><use x="196.0000000000" y="132.0000000000" xlink:href="#block"/><use x="220.0000000000" y="132.0000000000" xlink:href="#block"/><use x="236.0000000000" y="132.0000000000" xlink:href="#block"/><use x="260.0000000000" y="132.0000000000" xlink:href="#block"/><use x="284.0000000000" y="132.0000000000" xlink:href="#block"/><use x="292.0000000000" y="132.0000000000" xlink:href="#block"/><use x="12.0000000000" y="140.0000000000" xlink:href="#block"/><use x="28.0000000000" y="140.0000000000" xlink:href="#block"/><use x="36.0000000000" y="140.0000000000" xlink:href="#block"/><use x="44.0000000000" y="140.0000000000" xlink:href="#block"/><use x="52.0000000000" y="140.0000000000" xlink:href="#block"/><use x="60.0000000000" y="140.0000000000" xlink:href="#block"/><use x="68.0000000000" y="140.0000000000" xlink:href="#block"/><use x="76.0000000000" y="140.0000000000" xlink:href="#block"/><use x="108.0000000000" y="140.0000000000" xlink:href="#block"/><use x="116.0000000000" y="140.0000000000" xlink:href="#block"/><use x="132.0000000000" y="140.0000000000" xlink:href="#block"/><use x="140.0000000000" y="140.0000000000" xlink:href="#block"/><use x="156.0000000000" y="140.0000000000" xlink:href="#block"/><use x="180.0000000000" y="140.0000000000" xlink:href="#block"/><use x="188.0000000000" y="140.0000000000" xlink:href="#block"/><use x="228.0000000000" y="140.0000000000" xlink:href="#block"/><use x="236.0000000000" y="140.0000000000" xlink:href="#block"/><use x="252.0000000000" y="140.0000000000" xlink:href="#block"/><use x="284.0000000000" y="140.0000000000" xlink:href="#block"/><use x="292.0000000000" y="140.0000000000" xlink:href="#block"/><use x="300.0000000000" y="140.0000000000" xlink:href="#block"/><use x="12.0000000000" y="148.0000000000" xlink:href="#block"/><use x="20.0000000000" y="148.0000000000" xlink:href="#block"/><use x="28.0000000000" y="148.0000000000" xlink:href="#block"/><use x="36.0000000000" y="148.0000000000" xlink:href="#block"/><use x="76.0000000000" y="148.0000000000" xlink:href="#block"/><use x="84.0000000000" y="148.0000000000" xlink:href="#block"/><use x="92.0000000000" y="148.0000000000" xlink:href="#block"/><use x="124.0000000000" y="148.0000000000" xlink:href="#block"/><use x="132.0000000000" y="148.0000000000" xlink:href="#block"/><use x="156.0000000000" y="148.0000000000" xlink:href="#block"/><use x="164.0000000000" y="148.0000000000" xlink:href="#block"/><use x="172.0000000000" y="148.0000000000" xlink:href="#block"/><use x="180.0000000000" y="148.0000000000" xlink:href="#block"/><use x="188.0000000000" y="148.0000000000" xlink:href="#block"/><use x="204.0000000000" y="148.0000000000" xlink:href="#block"/><use x="228.0000000000" y="148.0000000000" xlink:href="#block"/><use x="244.0000000000" y="148.0000000000" xlink:href="#block"/><use x="252.0000000000" y="148.0000000000" xlink:href="#block"/><use x="276.0000000000" y="148.0000000000" xlink:href="#block"/><use x="300.0000000000" y="148.0000000000" xlink:href="#block"/><use x="20.0000000000" y="156.0000000000" xlink:href="#block"/><use x="28.0000000000" y="156.0000000000" xlink:href="#block"/><use x="60.0000000000" y="156.0000000000" xlink:href="#block"/><use x="68.0000000000" y="156.0000000000" xlink:href="#block"/><use x="100.0000000000" y="156.0000000000" xlink:href="#block"/><use x="108.0000000000" y="156.0000000000" xlink:href="#block"/><use x="116.0000000000" y="156.0000000000" xlink:href="#block"/><use x="124.0000000000" y="156.0000000000" xlink:href="#block"/><use x="132.0000000000" y="156.0000000000" xlink:href="#block"/><use x="148.0000000000" y="156.0000000000" xlink:href="#block"/><use x="196.0000000000" y="156.0000000000" xlink:href="#block"/><use x="204.0000000000" y="156.0000000000" xlink:href="#block"/><use x="212.0000000000" y="156.0000000000" xlink:href="#block"/><use x="252.0000000000" y="156.0000000000" xlink:href="#block"/><use x="260.0000000000" y="156.0000000000" xlink:href="#block"/><use x="268.0000000000" y="156.0000000000" xlink:href="#block"/><use x="276.0000000000" y="156.0000000000" xlink:href="#block"/><use x="284.0000000000" y="156.0000000000" xlink:href="#block"/><use x="292.0000000000" y="156.0000000000" xlink:href="#block"/><use x="300.0000000000" y="156.0000000000" xlink:href="#block"/><use x="12.0000000000" y="164.0000000000" xlink:href="#block"/><use x="20.0000000000" y="164.0000000000" xlink:href="#block"/><use x="36.0000000000" y="164.0000000000" xlink:href="#block"/><use x="44.0000000000" y="164.0000000000" xlink:href="#block"/><use x="52.0000000000" y="164.0000000000" xlink:href="#block"/><use x="68.0000000000" y="164.0000000000" xlink:href="#block"/><use x="100.0000000000" y="164.0000000000" xlink:href="#block"/><use x="124.0000000000" y="164.0000000000" xlink:href="#block"/><use x="140.0000000000" y="164.0000000000" xlink:href="#block"/><use x="148.0000000000" y="164.0000000000" xlink:href="#block"/><use x="156.0000000000" y="164.0000000000" xlink:href="#block"/><use x="164.0000000000" y="164.0000000000" xlink:href="#block"/><use x="188.0000000000" y="164.0000000000" xlink:href="#block"/><use x="196.0000000000" y="164.0000000000" xlink:href="#block"/><use x="212.0000000000" y="164.0000000000" xlink:href="#block"/><use x="220.0000000000" y="164.0000000000" xlink:href="#block"/><use x="236.0000000000" y="164.0000000000" xlink:href="#block"/><use x="260.0000000000" y="164.0000000000" xlink:href="#block"/><use x="284.0000000000" y="164.0000000000" xlink:href="#block"/><use x="292.0000000000" y="164.0000000000" xlink:href="#block"/><use x="12.0000000000" y="172.0000000000" xlink:href="#block"/><use x="28.0000000000" y="172.0000000000" xlink:href="#block"/><use x="44.0000000000" y="172.0000000000" xlink:href="#block"/><use x="52.0000000000" y="172.0000000000" xlink:href="#block"/><use x="60.0000000000" y="172.0000000000" xlink:href="#block"/><use x="68.0000000000" y="172.0000000000" xlink:href="#block"/><use x="84.0000000000" y="172.0000000000" xlink:href="#block"/><use x="100.0000000000" y="172.0000000000" xlink:href="#block"/><use x="108.0000000000" y="172.0000000000" xlink:href="#block"/><use x="124.0000000000" y="172.0000000000" xlink:href="#block"/><use x="132.0000000000" y="172.0000000000" xlink:href="#block"/><use x="148.0000000000" y="172.0000000000" xlink:href="#block"/><use x="172.0000000000" y="172.0000000000" xlink:href="#block"/><use x="204.0000000000" y="172.0000000000" xlink:href="#block"/><use x="212.0000000000" y="172.0000000000" xlink:href="#block"/><use x="220.0000000000" y="172.0000000000" xlink:href="#block"/><use x="228.0000000000" y="172.0000000000" xlink:href="#block"/><use x="236.0000000000" y="172.0000000000" xlink:href="#block"/><use x="244.0000000000" y="172.0000000000" xlink:href="#block"/><use x="260.0000000000" y="172.0000000000" xlink:href="#block"/><use x="284.0000000000" y="172.0000000000" xlink:href="#block"/><use x="292.0000000000" y="172.0000000000" xlink:href="#block"/><use x="300.0000000000" y="172.0000000000" xlink:href="#block"/><use x="36.0000000000" y="180.0000000000" xlink:href="#block"/><use x="52.0000000000" y="180.0000000000" xlink:href="#block"/><use x="68.0000000000" y="180.0000000000" xlink:href="#block"/><use x="76.0000000000" y="180.0000000000" xlink:href="#block"/><use x="84.0000000000" y="180.0000000000" xlink:href="#block"/><use x="108.0000000000" y="180.0000000000" xlink:href="#block"/><use x="124.0000000000" y="180.0000000000" xlink:href="#block"/><use x="132.0000000000" y="180.0000000000" xlink:href="#block"/><use x="172.0000000000" y="180.0000000000" xlink:href="#block"/><use x="180.0000000000" y="180.0000000000" xlink:href="#block"/><use x="196.0000000000" y="180.0000000000" xlink:href="#block"/><use x="204.0000000000" y="180.0000000000" xlink:href="#block"/><use x="220.0000000000" y="180.0000000000" xlink:href="#block"/><use x="236.0000000000" y="180.0000000000" xlink:href="#block"/><use x="268.0000000000" y="180.0000000000" xlink:href="#block"/><use x="300.0000000000" y="180.0000000000" xlink:href="#block"/><use x="12.0000000000" y="188.0000000000" xlink:href="#block"/><use x="60.0000000000" y="188.0000000000" xlink:href="#block"/><use x="84.0000000000" y="188.0000000000" xlink:href="#block"/><use x="92.0000000000" y="188.0000000000" xlink:href="#block"/><use x="108.0000000000" y="188.0000000000" xlink:href="#block"/><use x="116.0000000000" y="188.0000000000" xlink:href="#block"/><use x="124.0000000000" y="188.0000000000" xlink:href="#block"/><use x="132.0000000000" y="188.0000000000" xlink:href="#block"/><use x="140.0000000000" y="188.0000000000" xlink:href="#block"/><use x="148.0000000000" y="188.0000000000" xlink:href="#block"/><use x="180.0000000000" y="188.0000000000" xlink:href="#block"/><use x="188.0000000000" y="188.0000000000" xlink:href="#block"/><use x="204.0000000000" y="188.0000000000" xlink:href="#block"/><use x="212.0000000000" y="188.0000000000" xlink:href="#block"/><use x="220.0000000000" y="188.0000000000" xlink:href="#block"/><use x="244.0000000000" y="188.0000000000" xlink:href="#block"/><use x="252.0000000000" y="188.0000000000" xlink:href="#block"/><use x="268.0000000000" y="188.0000000000" xlink:href="#block"/><use x="284.0000000000" y="188.0000000000" xlink:href="#block"/><use x="20.0000000000" y="196.0000000000" xlink:href="#block"/><use x="44.0000000000" y="196.0000000000" xlink:href="#block"/><use x="68.0000000000" y="196.0000000000" xlink:href="#block"/><use x="76.0000000000" y="196.0000000000" xlink:href="#block"/><use x="92.0000000000" y="196.0000000000" xlink:href="#block"/><use x="108.0000000000" y="196.0000000000" xlink:href="#block"/><use x="140.0000000000" y="196.0000000000" xlink:href="#block"/><use x="164.0000000000" y="196.0000000000" xlink:href="#block"/><use x="172.0000000000" y="196.0000000000" xlink:href="#block"/><use x="196.0000000000" y="196.0000000000" xlink:href="#block"/><use x="220.0000000000" y="196.0000000000" xlink:href="#block"/><use x="260.0000000000" y="196.0000000000" xlink:href="#block"/><use x="276.0000000000" y="196.0000000000" xlink:href="#block"/><use x="20.0000000000" y="204.0000000000" xlink:href="#block"/><use x="28.0000000000" y="204.0000000000" xlink:href="#block"/><use x="36.0000000000" y="204.0000000000" xlink:href="#block"/><use x="44.0000000000" y="204.0000000000" xlink:href="#block"/><use x="60.0000000000" y="204.0000000000" xlink:href="#block"/><use x="68.0000000000" y="204.0000000000" xlink:href="#block"/><use x="84.0000000000" y="204.0000000000" xlink:href="#block"/><use x="108.0000000000" y="204.0000000000" xlink:href="#block"/><use x="116.0000000000" y="204.0000000000" xlink:href="#block"/><use x="124.0000000000" y="204.0000000000" xlink:href="#block"/><use x="132.0000000000" y="204.0000000000" xlink:href="#block"/><use x="140.0000000000" y="204.0000000000" xlink:href="#block"/><use x="148.0000000000" y="204.0000000000" xlink:href="#block"/><use x="156.0000000000" y="204.0000000000" xlink:href="#block"/><use x="172.0000000000" y="204.0000000000" xlink:href="#block"/><use x="180.0000000000" y="204.0000000000" xlink:href="#block"/><use x="220.0000000000" y="204.0000000000" xlink:href="#block"/><use x="228.0000000000" y="204.0000000000" xlink:href="#block"/><use x="236.0000000000" y="204.0000000000" xlink:href="#block"/><use x="244.0000000000" y="204.0000000000" xlink:href="#block"/><use x="260.0000000000" y="204.0000000000" xlink:href="#block"/><use x="268.0000000000" y="204.0000000000" xlink:href="#block"/><use x="276.0000000000" y="204.0000000000" xlink:href="#block"/><use x="284.0000000000" y="204.0000000000" xlink:href="#block"/><use x="292.0000000000" y="204.0000000000" xlink:href="#block"/><use x="300.0000000000" y="204.0000000000" xlink:href="#block"/><use x="12.0000000000" y="212.0000000000" xlink:href="#block"/><use x="20.0000000000" y="212.0000000000" xlink:href="#block"/><use x="28.0000000000" y="212.0000000000" xlink:href="#block"/><use x="36.0000000000" y="212.0000000000" xlink:href="#block"/><use x="52.0000000000" y="212.0000000000" xlink:href="#block"/><use x="68.0000000000" y="212.0000000000" xlink:href="#block"/><use x="92.0000000000" y="212.0000000000" xlink:href="#block"/><use x="124.0000000000" y="212.0000000000" xlink:href="#block"/><use x="132.0000000000" y="212.0000000000" xlink:href="#block"/><use x="140.0000000000" y="212.0000000000" xlink:href="#block"/><use x="164.0000000000" y="212.0000000000" xlink:href="#block"/><use x="172.0000000000" y="212.0000000000" xlink:href="#block"/><use x="180.0000000000" y="212.0000000000" xlink:href="#block"/><use x="204.0000000000" y="212.0000000000" xlink:href="#block"/><use x="236.0000000000" y="212.0000000000" xlink:href="#block"/><use x="244.0000000000" y="212.0000000000" xlink:href="#block"/><use x="268.0000000000" y="212.0000000000" xlink:href="#block"/><use x="292.0000000000" y="212.0000000000" xlink:href="#block"/><use x="300.0000000000" y="212.0000000000" xlink:href="#block"/><use x="12.0000000000" y="220.0000000000" xlink:href="#block"/><use x="28.0000000000" y="220.0000000000" xlink:href="#block"/><use x="44.0000000000" y="220.0000000000" xlink:href="#block"/><use x="52.0000000000" y="220.0000000000" xlink:href="#block"/><use x="60.0000000000" y="220.0000000000" xlink:href="#block"/><use x="68.0000000000" y="220.0000000000" xlink:href="#block"/><use x="84.0000000000" y="220.0000000000" xlink:href="#block"/><use x="92.0000000000" y="220.0000000000" xlink:href="#block"/><use x="108.0000000000" y="220.0000000000" xlink:href="#block"/><use x="116.0000000000" y="220.0000000000" xlink:href="#block"/><use x="124.0000000000" y="220.0000000000" xlink:href="#block"/><use x="148.0000000000" y="220.0000000000" xlink:href="#block"/><use x="188.0000000000" y="220.0000000000" xlink:href="#block"/><use x="196.0000000000" y="220.0000000000" xlink:href="#block"/><use x="204.0000000000" y="220.0000000000" xlink:href="#block"/><use x="212.0000000000" y="220.0000000000" xlink:href="#block"/><use x="220.0000000000" y="220.0000000000" xlink:href="#block"/><use x="228.0000000000" y="220.0000000000" xlink:href="#block"/><use x="236.0000000000" y="220.0000000000" xlink:href="#block"/><use x="244.0000000000" y="220.0000000000" xlink:href="#block"/><use x="252.0000000000" y="220.0000000000" xlink:href="#block"/><use x="268.0000000000" y="220.0000000000" xlink:href="#block"/><use x="284.0000000000" y="220.0000000000" xlink:href="#block"/><use x="300.0000000000" y="220.0000000000" xlink:href="#block"/><use x="12.0000000000" y="228.0000000000" xlink:href="#block"/><use x="28.0000000000" y="228.0000000000" xlink:href="#block"/><use x="44.0000000000" y="228.0000000000" xlink:href="#block"/><use x="76.0000000000" y="228.0000000000" xlink:href="#block"/><use x="84.0000000000" y="228.0000000000" xlink:href="#block"/><use x="92.0000000000" y="228.0000000000" xlink:href="#block"/><use x="100.0000000000" y="228.0000000000" xlink:href="#block"/><use x="164.0000000000" y="228.0000000000" xlink:href="#block"/><use x="172.0000000000" y="228.0000000000" xlink:href="#block"/><use x="212.0000000000" y="228.0000000000" xlink:href="#block"/><use x="236.0000000000" y="228.0000000000" xlink:href="#block"/><use x="244.0000000000" y="228.0000000000" xlink:href="#block"/><use x="260.0000000000" y="228.0000000000" xlink:href="#block"/><use x="12.0000000000" y="236.0000000000" xlink:href="#block"/><use x="28.0000000000" y="236.0000000000" xlink:href="#block"/><use x="36.0000000000" y="236.0000000000" xlink:href="#block"/><use x="52.0000000000" y="236.0000000000" xlink:href="#block"/><use x="60.0000000000" y="236.0000000000" xlink:href="#block"/><use x="68.0000000000" y="236.0000000000" xlink:href="#block"/><use x="76.0000000000" y="236.0000000000" xlink:href="#block"/><use x="116.0000000000" y="236.0000000000" xlink:href="#block"/><use x="124.0000000000" y="236.0000000000" xlink:href="#block"/><use x="132.0000000000" y="236.0000000000" xlink:href="#block"/><use x="172.0000000000" y="236.0000000000" xlink:href="#block"/><use x="188.0000000000" y="236.0000000000" xlink:href="#block"/><use x="228.0000000000" y="236.0000000000" xlink:href="#block"/><use x="236.0000000000" y="236.0000000000" xlink:href="#block"/><use x="244.0000000000" y="236.0000000000" xlink:href="#block"/><use x="252.0000000000" y="236.0000000000" xlink:href="#block"/><use x="260.0000000000" y="236.0000000000" xlink:href="#block"/><use x="268.0000000000" y="236.0000000000" xlink:href="#block"/><use x="284.0000000000" y="236.0000000000" xlink:href="#block"/><use x="292.0000000000" y="236.0000000000" xlink:href="#block"/><use x="300.0000000000" y="236.0000000000" xlink:href="#block"/><use x="76.0000000000" y="244.0000000000" xlink:href="#block"/><use x="124.0000000000" y="244.0000000000" xlink:href="#block"/><use x="132.0000000000" y="244.0000000000" xlink:href="#block"/><use x="140.0000000000" y="244.0000000000" xlink:href="#block"/><use x="156.0000000000" y="244.0000000000" xlink:href="#block"/><use x="180.0000000000" y="244.0000000000" xlink:href="#block"/><use x="188.0000000000" y="244.0000000000" xlink:href="#block"/><use x="220.0000000000" y="244.0000000000" xlink:href="#block"/><use x="236.0000000000" y="244.0000000000" xlink:href="#block"/><use x="268.0000000000" y="244.0000000000" xlink:href="#block"/><use x="276.0000000000" y="244.0000000000" xlink:href="#block"/><use x="300.0000000000" y="244.0000000000" xlink:href="#block"/><use x="12.0000000000" y="252.0000000000" xlink:href="#block"/><use x="20.0000000000" y="252.0000000000" xlink:href="#block"/><use x="28.0000000000" y="252.0000000000" xlink:href="#block"/><use x="36.0000000000" y="252.0000000000" xlink:href="#block"/><use x="44.0000000000" y="252.0000000000" xlink:href="#block"/><use x="52.0000000000" y="252.0000000000" xlink:href="#block"/><use x="60.0000000000" y="252.0000000000" xlink:href="#block"/><use x="76.0000000000" y="252.0000000000" xlink:href="#block"/><use x="92.0000000000" y="252.0000000000" xlink:href="#block"/><use x="108.0000000000" y="252.0000000000" xlink:href="#block"/><use x="116.0000000000" y="252.0000000000" xlink:href="#block"/><use x="124.0000000000" y="252.0000000000" xlink:href="#block"/><use x="132.0000000000" y="252.0000000000" xlink:href="#block"/><use x="140.0000000000" y="252.0000000000" xlink:href="#block"/><use x="148.0000000000" y="252.0000000000" xlink:href="#block"/><use x="188.0000000000" y="252.0000000000" xlink:href="#block"/><use x="196.0000000000" y="252.0000000000" xlink:href="#block"/><use x="212.0000000000" y="252.0000000000" xlink:href="#block"/><use x="220.0000000000" y="252.0000000000" xlink:href="#block"/><use x="236.0000000000" y="252.0000000000" xlink:href="#block"/><use x="252.0000000000" y="252.0000000000" xlink:href="#block"/><use x="268.0000000000" y="252.0000000000" xlink:href="#block"/><use x="276.0000000000" y="252.0000000000" xlink:href="#block"/><use x="284.0000000000" y="252.0000000000" xlink:href="#block"/><use x="292.0000000000" y="252.0000000000" xlink:href="#block"/><use x="300.0000000000" y="252.0000000000" xlink:href="#block"/><use x="12.0000000000" y="260.0000000000" xlink:href="#block"/><use x="60.0000000000" y="260.0000000000" xlink:href="#block"/><use x="84.0000000000" y="260.0000000000" xlink:href="#block"/><use x="100.0000000000" y="260.0000000000" xlink:href="#block"/><use x="140.0000000000" y="260.0000000000" xlink:href="#block"/><use x="156.0000000000" y="260.0000000000" xlink:href="#block"/><use x="164.0000000000" y="260.0000000000" xlink:href="#block"/><use x="172.0000000000" y="260.0000000000" xlink:href="#block"/><use x="196.0000000000" y="260.0000000000" xlink:href="#block"/><use x="204.0000000000" y="260.0000000000" xlink:href="#block"/><use x="220.0000000000" y="260.0000000000" xlink:href="#block"/><use x="236.0000000000" y="260.0000000000" xlink:href="#block"/><use x="268.0000000000" y="260.0000000000" xlink:href="#block"/><use x="284.0000000000" y="260.0000000000" xlink:href="#block"/><use x="12.0000000000" y="268.0000000000" xlink:href="#block"/><use x="28.0000000000" y="268.0000000000" xlink:href="#block"/><use x="36.0000000000" y="268.0000000000" xlink:href="#block"/><use x="44.0000000000" y="268.0000000000" xlink:href="#block"/><use x="60.0000000000" y="268.0000000000" xlink:href="#block"/><use x="76.0000000000" y="268.0000000000" xlink:href="#block"/><use x="108.0000000000" y="268.0000000000" xlink:href="#block"/><use x="124.0000000000" y="268.0000000000" xlink:href="#block"/><use x="132.0000000000" y="268.0000000000" xlink:href="#block"/><use x="140.0000000000" y="268.0000000000" xlink:href="#block"/><use x="180.0000000000" y="268.0000000000" xlink:href="#block"/><use x="188.0000000000" y="268.0000000000" xlink:href="#block"/><use x="220.0000000000" y="268.0000000000" xlink:href="#block"/><use x="236.0000000000" y="268.0000000000" xlink:href="#block"/><use x="244.0000000000" y="268.0000000000" xlink:href="#block"/><use x="252.0000000000" y="268.0000000000" xlink:href="#block"/><use x="260.0000000000" y="268.0000000000" xlink:href="#block"/><use x="268.0000000000" y="268.0000000000" xlink:href="#block"/><use x="276.0000000000" y="268.0000000000" xlink:href="#block"/><use x="284.0000000000" y="268.0000000000" xlink:href="#block"/><use x="12.0000000000" y="276.0000000000" xlink:href="#block"/><use x="28.0000000000" y="276.0000000000" xlink:href="#block"/><use x="36.0000000000" y="276.0000000000" xlink:href="#block"/><use x="44.0000000000" y="276.0000000000" xlink:href="#block"/><use x="60.0000000000" y="276.0000000000" xlink:href="#block"/><use x="76.0000000000" y="276.0000000000" xlink:href="#block"/><use x="124.0000000000" y="276.0000000000" xlink:href="#block"/><use x="132.0000000000" y="276.0000000000" xlink:href="#block"/><use x="180.0000000000" y="276.0000000000" xlink:href="#block"/><use x="188.0000000000" y="276.0000000000" xlink:href="#block"/><use x="228.0000000000" y="276.0000000000" xlink:href="#block"/><use x="236.0000000000" y="276.0000000000" xlink:href="#block"/><use x="252.0000000000" y="276.0000000000" xlink:href="#block"/><use x="260.0000000000" y="276.0000000000" xlink:href="#block"/><use x="292.0000000000" y="276.0000000000" xlink:href="#block"/><use x="300.0000000000" y="276.0000000000" xlink:href="#block"/><use x="12.0000000000" y="284.0000000000" xlink:href="#block"/><use x="28.0000000000" y="284.0000000000" xlink:href="#block"/><use x="36.0000000000" y="284.0000000000" xlink:href="#block"/><use x="44.0000000000" y="284.0000000000" xlink:href="#block"/><use x="60.0000000000" y="284.0000000000" xlink:href="#block"/><use x="76.0000000000" y="284.0000000000" xlink:href="#block"/><use x="92.0000000000" y="284.0000000000" xlink:href="#block"/><use x="116.0000000000" y="284.0000000000" xlink:href="#block"/><use x="124.0000000000" y="284.0000000000" xlink:href="#block"/><use x="148.0000000000" y="284.0000000000" xlink:href="#block"/><use x="172.0000000000" y="284.0000000000" xlink:href="#block"/><use x="188.0000000000" y="284.0000000000" xlink:href="#block"/><use x="204.0000000000" y="284.0000000000" xlink:href="#block"/><use x="212.0000000000" y="284.0000000000" xlink:href="#block"/><use x="220.0000000000" y="284.0000000000" xlink:href="#block"/><use x="228.0000000000" y="284.0000000000" xlink:href="#block"/><use x="268.0000000000" y="284.0000000000" xlink:href="#block"/><use x="284.0000000000" y="284.0000000000" xlink:href="#block"/><use x="300.0000000000" y="284.0000000000" xlink:href="#block"/><use x="12.0000000000" y="292.0000000000" xlink:href="#block"/><use x="60.0000000000" y="292.0000000000" xlink:href="#block"/><use x="76.0000000000" y="292.0000000000" xlink:href="#block"/><use x="84.0000000000" y="292.0000000000" xlink:href="#block"/><use x="92.0000000000" y="292.0000000000" xlink:href="#block"/><use x="100.0000000000" y="292.0000000000" xlink:href="#block"/><use x="124.0000000000" y="292.0000000000" xlink:href="#block"/><use x="140.0000000000" y="292.0000000000" xlink:href="#block"/><use x="156.0000000000" y="292.0000000000" xlink:href="#block"/><use x="164.0000000000" y="292.0000000000" xlink:href="#block"/><use x="172.0000000000" y="292.0000000000" xlink:href="#block"/><use x="180.0000000000" y="292.0000000000" xlink:href="#block"/><use x="196.0000000000" y="292.0000000000" xlink:href="#block"/><use x="212.0000000000" y="292.0000000000" xlink:href="#block"/><use x="236.0000000000" y="292.0000000000" xlink:href="#block"/><use x="244.0000000000" y="292.0000000000" xlink:href="#block"/><use x="252.0000000000" y="292.0000000000" xlink:href="#block"/><use x="268.0000000000" y="292.0000000000" xlink:href="#block"/><use x="292.0000000000" y="292.0000000000" xlink:href="#block"/><use x="12.0000000000" y="300.0000000000" xlink:href="#block"/><use x="20.0000000000" y="300.0000000000" xlink:href="#block"/><use x="28.0000000000" y="300.0000000000" xlink:href="#block"/><use x="36.0000000000" y="300.0000000000" xlink:href="#block"/><use x="44.0000000000" y="300.0000000000" xlink:href="#block"/><use x="52.0000000000" y="300.0000000000" xlink:href="#block"/><use x="60.0000000000" y="300.0000000000" xlink:href="#block"/><use x="76.0000000000" y="300.0000000000" xlink:href="#block"/><use x="84.0000000000" y="300.0000000000" xlink:href="#block"/><use x="116.0000000000" y="300.0000000000" xlink:href="#block"/><use x="132.0000000000" y="300.0000000000" xlink:href="#block"/><use x="172.0000000000" y="300.0000000000" xlink:href="#block"/><use x="180.0000000000" y="300.0000000000" xlink:href="#block"/><use x="188.0000000000" y="300.0000000000" xlink:href="#block"/><use x="204.0000000000" y="300.0000000000" xlink:href="#block"/><use x="220.0000000000" y="300.0000000000" xlink:href="#block"/><use x="260.0000000000" y="300.0000000000" xlink:href="#block"/><use x="284.0000000000" y="300.0000000000" xlink:href="#block"/><use x="292.0000000000" y="300.0000000000" xlink:href="#block"/><use x="300.0000000000" y="300.0000000000" xlink:href="#block"/></svg>
